<svg id="Layer_1" data-name="Layer 1" xmlns="http://www.w3.org/2000/svg" viewBox="0 0 509.32 121.94"><defs><style>.cls-1{fill:#06b8d2;}</style></defs><title>originals</title><path class="cls-1" d="M51.12,418.33,74,387.08l21.13,9.68L79.3,418.33Zm59.43-42.7,31.7,42.7H114.07L82.82,376.07,51.57,332.49H65.21a24.18,24.18,0,0,1,21.13,11.89l10.13,17.17,17.6-29.06h27.74Z" transform="translate(-51.13 -298.16)"/><path class="cls-1" d="M178.78,331.17A43.55,43.55,0,0,1,210,344.38a53.35,53.35,0,0,1,9.68,14.08,44.38,44.38,0,0,1,3.53,17.17,66,66,0,0,1-.88,9.69v.44H178.78L173.5,377a5.81,5.81,0,0,1,4.84-8.8h22a28.38,28.38,0,0,0-7.92-11.89,19.48,19.48,0,0,0-13.21-4.84,19.7,19.7,0,0,0-8.8,1.76,28.37,28.37,0,0,0-7,4.84,22.1,22.1,0,0,0-4.84,7.49,23.52,23.52,0,0,0-1.77,9.68,17.18,17.18,0,0,0,1.77,7.93,25.76,25.76,0,0,0,4.4,7.48,22.39,22.39,0,0,0,7,5.72,20.45,20.45,0,0,0,9.24,2.2,25.64,25.64,0,0,0,8.37-1.32c2.64-.88,4.84-2.64,7.48-5.72h.44l19.81,8.8-.44.44c-5.72,7.93-13.2,13.21-23.33,16.73a19.93,19.93,0,0,1-7,1.32c-8.37.88-15.85,0-22.89-3.08a43.41,43.41,0,0,1-14.09-9.24,53.4,53.4,0,0,1-9.68-14.09,43.52,43.52,0,0,1,0-34.34,44.68,44.68,0,0,1,9.68-14.08,53.27,53.27,0,0,1,14.09-9.69A44.07,44.07,0,0,1,178.78,331.17Z" transform="translate(-51.13 -298.16)"/><path class="cls-1" d="M243.5,332.49l22,62.07-15,15.85-22.45-55c-4-11,4-22.89,15.41-22.89Zm47.1,0h24.21l-35.22,85.84H259.78l7.05-19.81Z" transform="translate(-51.13 -298.16)"/><path class="cls-1" d="M354,331.17a43.55,43.55,0,0,1,31.25,13.21,53.62,53.62,0,0,1,9.69,14.08,44.37,44.37,0,0,1,3.52,17.17,66,66,0,0,1-.88,9.69v.44H354l-4.85-7.49c-2.64-4.4.44-10.12,5.29-10.12h21.13a28.4,28.4,0,0,0-7.93-11.89,19.48,19.48,0,0,0-13.2-4.84,19.74,19.74,0,0,0-8.81,1.76,28.37,28.37,0,0,0-7,4.84,22.1,22.1,0,0,0-4.84,7.49,23.68,23.68,0,0,0-1.76,9.68,17.3,17.3,0,0,0,1.76,7.93,25.76,25.76,0,0,0,4.4,7.48,22.39,22.39,0,0,0,7,5.72,20.5,20.5,0,0,0,9.25,2.2,25.62,25.62,0,0,0,8.36-1.32c2.64-.88,4.84-2.64,7.48-5.72h.44l19.81,8.8-.44.44c-4.84,7-11.44,11.89-19.37,15.41a45.42,45.42,0,0,1-15,3.08,46.65,46.65,0,0,1-18.93-3.52,43.51,43.51,0,0,1-14.09-9.24,53.4,53.4,0,0,1-9.68-14.09,43.58,43.58,0,0,1,9.68-48.42,53.43,53.43,0,0,1,14.09-9.69C341.66,332.05,347.82,331.17,354,331.17Z" transform="translate(-51.13 -298.16)"/><path class="cls-1" d="M429.7,298.16V418.33H406.81V298.16Z" transform="translate(-51.13 -298.16)"/><path class="cls-1" d="M462.72,298.16V418.33H439.83V298.16Z" transform="translate(-51.13 -298.16)"/><path class="cls-1" d="M516,331.17a44.3,44.3,0,0,1,17.17,3.52,44.76,44.76,0,0,1,14.09,9.69,53.35,53.35,0,0,1,9.68,14.08,43.61,43.61,0,0,1-9.68,48.43,53.4,53.4,0,0,1-14.09,9.68,43.58,43.58,0,0,1-48.42-9.68A53.43,53.43,0,0,1,475,392.8a43.55,43.55,0,0,1,9.69-48.42,53.38,53.38,0,0,1,14.08-9.69C503.66,332.05,509.82,331.17,516,331.17Zm0,68.23a15.11,15.11,0,0,0,7.93-1.76,19.48,19.48,0,0,0,6.6-5.28,23.07,23.07,0,0,0,4.4-7.92,34.39,34.39,0,0,0,1.76-9.69,23,23,0,0,0-1.76-9.24c-.88-3.08-2.64-5.28-4.4-7.49a19.48,19.48,0,0,0-6.6-5.28A17.33,17.33,0,0,0,516,351a15.07,15.07,0,0,0-7.92,1.76,19.48,19.48,0,0,0-6.6,5.28,25.75,25.75,0,0,0-4.41,7.49,34.27,34.27,0,0,0-1.76,9.24,23.73,23.73,0,0,0,1.76,9.69c.88,3.08,2.64,5.28,4.41,7.92a19.48,19.48,0,0,0,6.6,5.28A21,21,0,0,0,516,399.4Z" transform="translate(-51.13 -298.16)"/></svg>